<svg width="1277.0225585937499px" height="273.2149780273437px" xmlns="http://www.w3.org/2000/svg" viewBox="-388.51127929687493 -61.60748901367185 1277.0225585937499 273.2149780273437" style="background: rgba(0, 0, 0, 0);" preserveAspectRatio="xMidYMid"><defs><filter id="editing-extrude-glow"><feFlood flood-color="#333333" result="flood-1"></feFlood><feMorphology operator="erode" radius="1" in="SourceAlpha" result="erode"></feMorphology><feComposite operator="in" in="flood-1" in2="erode" result="comp1"></feComposite><feConvolveMatrix order="0,0" divisor="1" in="comp1" result="convolve" kernelMatrix=""></feConvolveMatrix><feOffset dx="0" dy="0" in="convolve" result="extrude"></feOffset><feComposite operator="in" in="flood-1" in2="extrude" result="comp-extrude"></feComposite><feFlood flood-color="#ffffff" result="flood-2"></feFlood><feComposite operator="in" in="flood-2" in2="SourceAlpha" result="comp2"></feComposite><feMorphology operator="dilate" radius="1" in="comp2" result="dilate"></feMorphology><feOffset dx="0" dy="0" in="dilate" result="offset"></feOffset><feGaussianBlur in="offset" stdDeviation="5.8" result="blur"></feGaussianBlur><feComponentTransfer in="blur" result="shadow"><feFuncA type="linear" slope="0.8" intercept="-0.2"></feFuncA></feComponentTransfer><feMerge><feMergeNode in="shadow"></feMergeNode><feMergeNode in="comp-extrude"></feMergeNode><feMergeNode in="SourceGraphic"></feMergeNode></feMerge></filter></defs><g filter="url(#editing-extrude-glow)"><g transform="translate(-207.12998294830322, 147.0199966430664)"><path d="M59.96-140.04L79.98-140.04L133.98 0L113.96 0L101.56-32.23L38.38-32.23L25.98 0L5.96 0L59.96-140.04ZM70.02-113.96L46.00-52.25L93.85-52.25L70.02-113.96ZM214.84-84.77L175.20-84.77L175.20 0L156.05 0L156.05-104.00L175.20-104.00L175.20-85.64L175.20-85.64Q175.39-89.45 176.95-92.82L176.95-92.82L176.95-92.82Q178.52-96.19 181.10-98.68L181.10-98.68L181.10-98.68Q183.69-101.17 187.11-102.59L187.11-102.59L187.11-102.59Q190.53-104.00 194.43-104.00L194.43-104.00L214.84-104.00L214.84-104.00Q218.85-104.00 222.31-102.49L222.31-102.49L222.31-102.49Q225.78-100.98 228.42-98.39L228.42-98.39L228.42-98.39Q231.05-95.80 232.57-92.29L232.57-92.29L232.57-92.29Q234.08-88.77 234.08-84.77L234.08-84.77L234.08-67.19L214.84-67.19L214.84-84.77ZM353.81 0L326.76 0L277.15-44.43L277.15 0L258.01 0L258.01-144.04L277.15-144.04L277.15-62.99L322.75-104.00L349.80-104.00L293.95-53.81L353.81 0ZM367.77-19.24L367.77-104.00L386.91-104.00L386.91-19.24L440.53-19.24L440.53-104.00L459.77-104.00L459.77 0L440.53 0L440.53-17.58L440.53-17.58Q440.23-13.96 438.57-10.74L438.57-10.74L438.57-10.74Q436.91-7.52 434.33-5.13L434.33-5.13L434.33-5.13Q431.74-2.73 428.42-1.37L428.42-1.37L428.42-1.37Q425.10 0 421.39 0L421.39 0L386.91 0L386.91 0Q383.01 0 379.49-1.51L379.49-1.51L379.49-1.51Q375.98-3.03 373.39-5.62L373.39-5.62L373.39-5.62Q370.80-8.20 369.29-11.72L369.29-11.72L369.29-11.72Q367.77-15.23 367.77-19.24L367.77-19.24ZM491.80-144.04L510.94-144.04L510.94 0L491.80 0L491.80-144.04ZM624.90-108.59L624.90 0L604.88 0L604.88-140.04L624.90-140.04L709.08-31.45L709.08-140.04L729.10-140.04L729.10 0L709.08 0L624.90-108.59ZM764.06-104.00L783.30-104.00L783.30 0L764.06 0L764.06-104.00ZM763.09-124.02L763.09-144.04L784.28-144.04L784.28-124.02L763.09-124.02ZM816.31-19.24L816.31-84.77L816.31-84.77Q816.31-88.77 817.82-92.29L817.82-92.29L817.82-92.29Q819.34-95.80 821.92-98.39L821.92-98.39L821.92-98.39Q824.51-100.98 828.03-102.49L828.03-102.49L828.03-102.49Q831.54-104.00 835.45-104.00L835.45-104.00L889.06-104.00L889.06-144.04L908.30-144.04L908.30 0L889.06 0L889.06-17.58L889.06-17.58Q888.77-13.96 887.11-10.74L887.11-10.74L887.11-10.74Q885.45-7.52 882.86-5.13L882.86-5.13L882.86-5.13Q880.27-2.73 876.95-1.37L876.95-1.37L876.95-1.37Q873.63 0 869.92 0L869.92 0L835.45 0L835.45 0Q831.54 0 828.03-1.51L828.03-1.51L828.03-1.51Q824.51-3.03 821.92-5.62L821.92-5.62L821.92-5.62Q819.34-8.20 817.82-11.72L817.82-11.72L817.82-11.72Q816.31-15.23 816.31-19.24L816.31-19.24ZM835.45-84.77L835.45-19.24L889.06-19.24L889.06-84.77L835.45-84.77Z" fill="#000000"></path></g></g><style>text {
  font-size: 64px;
  font-family: Arial Black;
  dominant-baseline: central;
  text-anchor: middle;
}</style></svg>